<mxfile host="app.diagrams.net" agent="Mozilla/5.0 (X11; Linux x86_64) AppleWebKit/537.36 (KHTML, like Gecko) Chrome/134.0.0.0 Safari/537.36" version="26.1.0" pages="2">
  <diagram name="Pagina-1" id="IjJnmXmjRmm-rZUCtE4m">
    <mxGraphModel dx="1974" dy="629" grid="1" gridSize="10" guides="1" tooltips="1" connect="1" arrows="1" fold="1" page="1" pageScale="1" pageWidth="827" pageHeight="1169" math="0" shadow="0">
      <root>
        <mxCell id="0" />
        <mxCell id="1" parent="0" />
        <mxCell id="3-KLOooi5ENP4IrTd0Cn-2" value="Input Sentence" style="rounded=1;html=1;glass=0;shadow=1;pointerEvents=0;align=center;verticalAlign=middle;fontFamily=Helvetica;fontSize=14;fillColor=#d5e8d4;strokeColor=#82b366;textShadow=1;whiteSpace=wrap;" parent="1" vertex="1">
          <mxGeometry x="85" y="30" width="120" height="60" as="geometry" />
        </mxCell>
        <mxCell id="qkBd6DQFq6oWj8cSMgXT-24" value="" style="group;textShadow=1;whiteSpace=wrap;fontSize=14;" vertex="1" connectable="0" parent="1">
          <mxGeometry x="-190" y="170" width="210" height="220" as="geometry" />
        </mxCell>
        <mxCell id="qkBd6DQFq6oWj8cSMgXT-20" value="&lt;span style=&quot;font-style: normal;&quot;&gt;&lt;b&gt;&lt;font&gt;Large Language Model&lt;/font&gt;&lt;/b&gt;&lt;/span&gt;" style="rounded=1;html=1;fillColor=#CCE5FF;strokeColor=#3399FF;fontSize=14;fontStyle=2;shadow=1;textShadow=1;labelPosition=center;verticalLabelPosition=middle;align=center;verticalAlign=top;whiteSpace=wrap;" vertex="1" parent="qkBd6DQFq6oWj8cSMgXT-24">
          <mxGeometry width="210" height="220" as="geometry" />
        </mxCell>
        <mxCell id="qkBd6DQFq6oWj8cSMgXT-23" style="edgeStyle=orthogonalEdgeStyle;rounded=0;orthogonalLoop=1;jettySize=auto;html=1;strokeWidth=4;exitX=0.5;exitY=1;exitDx=0;exitDy=0;entryX=0.5;entryY=0;entryDx=0;entryDy=0;shadow=1;textShadow=1;flowAnimation=0;fontSize=14;" edge="1" parent="qkBd6DQFq6oWj8cSMgXT-24" source="qkBd6DQFq6oWj8cSMgXT-69" target="qkBd6DQFq6oWj8cSMgXT-70">
          <mxGeometry relative="1" as="geometry">
            <mxPoint x="105" y="83.59999999999991" as="sourcePoint" />
            <mxPoint x="105" y="132" as="targetPoint" />
            <Array as="points" />
          </mxGeometry>
        </mxCell>
        <mxCell id="qkBd6DQFq6oWj8cSMgXT-69" value="&lt;div&gt;LLM&lt;/div&gt;" style="rounded=1;html=1;shadow=1;textShadow=1;whiteSpace=wrap;fontSize=14;" vertex="1" parent="qkBd6DQFq6oWj8cSMgXT-24">
          <mxGeometry x="45" y="50" width="120" height="50" as="geometry" />
        </mxCell>
        <mxCell id="qkBd6DQFq6oWj8cSMgXT-70" value="Classification Head" style="rounded=1;html=1;shadow=1;textShadow=1;whiteSpace=wrap;fontSize=14;" vertex="1" parent="qkBd6DQFq6oWj8cSMgXT-24">
          <mxGeometry x="45" y="140" width="120" height="50" as="geometry" />
        </mxCell>
        <mxCell id="qkBd6DQFq6oWj8cSMgXT-25" style="edgeStyle=orthogonalEdgeStyle;rounded=1;orthogonalLoop=1;jettySize=auto;html=1;strokeWidth=4;exitX=0.5;exitY=1;exitDx=0;exitDy=0;entryX=0.5;entryY=0;entryDx=0;entryDy=0;shadow=1;textShadow=1;flowAnimation=0;curved=0;fontSize=14;" edge="1" parent="1" source="3-KLOooi5ENP4IrTd0Cn-2" target="qkBd6DQFq6oWj8cSMgXT-20">
          <mxGeometry relative="1" as="geometry">
            <mxPoint x="-90" y="140" as="sourcePoint" />
            <mxPoint x="-90" y="188" as="targetPoint" />
            <Array as="points" />
          </mxGeometry>
        </mxCell>
        <mxCell id="qkBd6DQFq6oWj8cSMgXT-56" style="edgeStyle=orthogonalEdgeStyle;rounded=1;orthogonalLoop=1;jettySize=auto;html=1;strokeWidth=4;exitX=0.5;exitY=1;exitDx=0;exitDy=0;entryX=0.5;entryY=0;entryDx=0;entryDy=0;shadow=1;textShadow=1;flowAnimation=0;curved=0;fontSize=14;" edge="1" parent="1" source="3-KLOooi5ENP4IrTd0Cn-2" target="qkBd6DQFq6oWj8cSMgXT-27">
          <mxGeometry relative="1" as="geometry">
            <mxPoint x="153" y="102" as="sourcePoint" />
            <mxPoint x="-115" y="180" as="targetPoint" />
            <Array as="points" />
          </mxGeometry>
        </mxCell>
        <mxCell id="qkBd6DQFq6oWj8cSMgXT-57" style="edgeStyle=orthogonalEdgeStyle;rounded=1;orthogonalLoop=1;jettySize=auto;html=1;strokeWidth=4;exitX=0.5;exitY=1;exitDx=0;exitDy=0;entryX=0.5;entryY=0;entryDx=0;entryDy=0;shadow=1;textShadow=1;flowAnimation=0;curved=0;fontSize=14;" edge="1" parent="1" source="3-KLOooi5ENP4IrTd0Cn-2" target="qkBd6DQFq6oWj8cSMgXT-32">
          <mxGeometry relative="1" as="geometry">
            <mxPoint x="153" y="102" as="sourcePoint" />
            <mxPoint x="-115" y="180" as="targetPoint" />
            <Array as="points" />
          </mxGeometry>
        </mxCell>
        <mxCell id="qkBd6DQFq6oWj8cSMgXT-63" style="edgeStyle=orthogonalEdgeStyle;rounded=1;orthogonalLoop=1;jettySize=auto;html=1;strokeWidth=4;exitX=0.5;exitY=1;exitDx=0;exitDy=0;entryX=0.5;entryY=0;entryDx=0;entryDy=0;shadow=1;textShadow=1;flowAnimation=0;curved=0;fontSize=14;" edge="1" parent="1" source="qkBd6DQFq6oWj8cSMgXT-20" target="3-KLOooi5ENP4IrTd0Cn-23">
          <mxGeometry relative="1" as="geometry">
            <mxPoint x="153" y="102" as="sourcePoint" />
            <mxPoint x="-115" y="180" as="targetPoint" />
            <Array as="points" />
          </mxGeometry>
        </mxCell>
        <mxCell id="qkBd6DQFq6oWj8cSMgXT-64" value="" style="group;textShadow=1;whiteSpace=wrap;fontSize=14;" vertex="1" connectable="0" parent="1">
          <mxGeometry x="52" y="510" width="340" height="190" as="geometry" />
        </mxCell>
        <mxCell id="3-KLOooi5ENP4IrTd0Cn-23" value="" style="rounded=1;html=1;fillColor=#fff2cc;strokeColor=#d6b656;shadow=1;textShadow=1;whiteSpace=wrap;fontSize=14;" parent="qkBd6DQFq6oWj8cSMgXT-64" vertex="1">
          <mxGeometry width="180" height="180" as="geometry" />
        </mxCell>
        <mxCell id="3-KLOooi5ENP4IrTd0Cn-17" value="Raw Logit" style="rounded=1;html=1;shadow=1;textShadow=1;whiteSpace=wrap;fontSize=14;" parent="qkBd6DQFq6oWj8cSMgXT-64" vertex="1">
          <mxGeometry x="30" y="60" width="120" height="20" as="geometry" />
        </mxCell>
        <mxCell id="3-KLOooi5ENP4IrTd0Cn-18" value="Softmax" style="rounded=1;html=1;shadow=1;textShadow=1;whiteSpace=wrap;fontSize=14;" parent="qkBd6DQFq6oWj8cSMgXT-64" vertex="1">
          <mxGeometry x="30" y="95" width="120" height="20" as="geometry" />
        </mxCell>
        <mxCell id="3-KLOooi5ENP4IrTd0Cn-19" value="&lt;div&gt;Threshold &lt;br&gt;&lt;/div&gt;" style="rounded=1;html=1;shadow=1;textShadow=1;whiteSpace=wrap;fontSize=14;" parent="qkBd6DQFq6oWj8cSMgXT-64" vertex="1">
          <mxGeometry x="30" y="130" width="120" height="20" as="geometry" />
        </mxCell>
        <mxCell id="3-KLOooi5ENP4IrTd0Cn-43" style="edgeStyle=orthogonalEdgeStyle;rounded=1;orthogonalLoop=1;jettySize=auto;html=1;exitX=0;exitY=0.5;exitDx=0;exitDy=0;entryX=1;entryY=0.5;entryDx=0;entryDy=0;shadow=1;curved=0;textShadow=1;fontSize=14;" parent="qkBd6DQFq6oWj8cSMgXT-64" source="3-KLOooi5ENP4IrTd0Cn-21" target="3-KLOooi5ENP4IrTd0Cn-19" edge="1">
          <mxGeometry relative="1" as="geometry" />
        </mxCell>
        <mxCell id="3-KLOooi5ENP4IrTd0Cn-21" value="Optimized on dev" style="rounded=1;html=1;movable=1;resizable=1;rotatable=1;deletable=1;editable=1;locked=0;connectable=1;shadow=1;textShadow=1;whiteSpace=wrap;fontSize=14;" parent="qkBd6DQFq6oWj8cSMgXT-64" vertex="1">
          <mxGeometry x="190" y="130" width="120" height="20" as="geometry" />
        </mxCell>
        <mxCell id="3-KLOooi5ENP4IrTd0Cn-59" value="" style="endArrow=none;html=1;rounded=0;entryX=0.5;entryY=1;entryDx=0;entryDy=0;exitX=0.5;exitY=0;exitDx=0;exitDy=0;shadow=1;textShadow=1;fontSize=14;" parent="qkBd6DQFq6oWj8cSMgXT-64" source="3-KLOooi5ENP4IrTd0Cn-18" target="3-KLOooi5ENP4IrTd0Cn-17" edge="1">
          <mxGeometry width="50" height="50" relative="1" as="geometry">
            <mxPoint x="-5" y="93" as="sourcePoint" />
            <mxPoint x="45" y="43" as="targetPoint" />
          </mxGeometry>
        </mxCell>
        <mxCell id="_UJbNQESPIWGQFi5cG9G-17" value="" style="endArrow=none;html=1;rounded=0;exitX=0.5;exitY=0;exitDx=0;exitDy=0;entryX=0.5;entryY=1;entryDx=0;entryDy=0;shadow=1;textShadow=1;fontSize=14;" parent="qkBd6DQFq6oWj8cSMgXT-64" source="3-KLOooi5ENP4IrTd0Cn-19" target="3-KLOooi5ENP4IrTd0Cn-18" edge="1">
          <mxGeometry width="50" height="50" relative="1" as="geometry">
            <mxPoint x="180" y="104" as="sourcePoint" />
            <mxPoint x="230" y="54" as="targetPoint" />
          </mxGeometry>
        </mxCell>
        <mxCell id="3-KLOooi5ENP4IrTd0Cn-34" value="&lt;b&gt;&lt;font&gt;Decision Threshold&amp;nbsp; Calibration&lt;/font&gt;&lt;/b&gt;" style="text;html=1;align=center;verticalAlign=middle;rounded=0;shadow=1;textShadow=1;whiteSpace=wrap;fontSize=14;" parent="qkBd6DQFq6oWj8cSMgXT-64" vertex="1">
          <mxGeometry x="20" y="10" width="140" height="30" as="geometry" />
        </mxCell>
        <mxCell id="qkBd6DQFq6oWj8cSMgXT-65" style="edgeStyle=orthogonalEdgeStyle;rounded=1;orthogonalLoop=1;jettySize=auto;html=1;strokeWidth=4;exitX=0.5;exitY=1;exitDx=0;exitDy=0;shadow=1;textShadow=1;flowAnimation=0;curved=0;entryX=0.5;entryY=0;entryDx=0;entryDy=0;fontSize=14;" edge="1" parent="1" source="qkBd6DQFq6oWj8cSMgXT-32" target="3-KLOooi5ENP4IrTd0Cn-23">
          <mxGeometry relative="1" as="geometry">
            <mxPoint x="459" y="392" as="sourcePoint" />
            <mxPoint x="190" y="510" as="targetPoint" />
            <Array as="points" />
          </mxGeometry>
        </mxCell>
        <mxCell id="qkBd6DQFq6oWj8cSMgXT-66" style="edgeStyle=orthogonalEdgeStyle;rounded=1;orthogonalLoop=1;jettySize=auto;html=1;strokeWidth=4;exitX=0.488;exitY=1.002;exitDx=0;exitDy=0;entryX=0.5;entryY=0;entryDx=0;entryDy=0;shadow=1;textShadow=1;flowAnimation=0;curved=0;exitPerimeter=0;fontSize=14;" edge="1" parent="1" source="qkBd6DQFq6oWj8cSMgXT-27" target="3-KLOooi5ENP4IrTd0Cn-23">
          <mxGeometry relative="1" as="geometry">
            <mxPoint x="450" y="400" as="sourcePoint" />
            <mxPoint x="150" y="530" as="targetPoint" />
            <Array as="points" />
          </mxGeometry>
        </mxCell>
        <mxCell id="3-KLOooi5ENP4IrTd0Cn-20" value="&lt;div&gt;&lt;i&gt;&lt;font&gt;Final predictions&lt;/font&gt;&lt;/i&gt;&lt;/div&gt;" style="rounded=1;html=1;shadow=1;strokeColor=#9673A6;align=center;verticalAlign=top;fontFamily=Helvetica;fontSize=14;fontColor=default;fontStyle=2;fillColor=#e1d5e7;textShadow=1;whiteSpace=wrap;" parent="1" vertex="1">
          <mxGeometry x="80" y="730" width="120" height="30" as="geometry" />
        </mxCell>
        <mxCell id="3-KLOooi5ENP4IrTd0Cn-45" style="edgeStyle=orthogonalEdgeStyle;rounded=1;orthogonalLoop=1;jettySize=auto;html=1;exitX=0;exitY=0.5;exitDx=0;exitDy=0;entryX=1;entryY=0.5;entryDx=0;entryDy=0;shadow=1;curved=0;textShadow=1;fontSize=14;" parent="1" source="3-KLOooi5ENP4IrTd0Cn-44" target="3-KLOooi5ENP4IrTd0Cn-20" edge="1">
          <mxGeometry relative="1" as="geometry" />
        </mxCell>
        <mxCell id="3-KLOooi5ENP4IrTd0Cn-44" value="Computed on dev-test" style="rounded=1;html=1;shadow=1;textShadow=1;whiteSpace=wrap;fontSize=14;" parent="1" vertex="1">
          <mxGeometry x="240" y="735" width="140" height="20" as="geometry" />
        </mxCell>
        <mxCell id="qkBd6DQFq6oWj8cSMgXT-27" value="&lt;span style=&quot;font-style: normal;&quot;&gt;&lt;b&gt;&lt;font&gt;Bidirectional Transformer&lt;/font&gt;&lt;/b&gt;&lt;/span&gt;" style="rounded=1;html=1;fillColor=#CCE5FF;strokeColor=#3399FF;fontSize=14;fontStyle=2;shadow=1;textShadow=1;labelPosition=center;verticalLabelPosition=middle;align=center;verticalAlign=top;whiteSpace=wrap;" vertex="1" parent="1">
          <mxGeometry x="40" y="170" width="210" height="220" as="geometry" />
        </mxCell>
        <mxCell id="3-KLOooi5ENP4IrTd0Cn-69" value="&lt;div&gt;mDeBERTa-v3 / ModernBERT&lt;/div&gt;" style="rounded=1;html=1;shadow=1;textShadow=1;whiteSpace=wrap;fontSize=14;" parent="1" vertex="1">
          <mxGeometry x="85" y="255" width="120" height="50" as="geometry" />
        </mxCell>
        <mxCell id="qkBd6DQFq6oWj8cSMgXT-31" value="" style="group;textShadow=1;whiteSpace=wrap;fontSize=14;" vertex="1" connectable="0" parent="1">
          <mxGeometry x="330" y="170" width="260" height="220" as="geometry" />
        </mxCell>
        <mxCell id="qkBd6DQFq6oWj8cSMgXT-32" value="&lt;span style=&quot;font-style: normal;&quot;&gt;&lt;b&gt;&lt;font&gt;Bidirectional Transformer with sentiment&lt;/font&gt;&lt;/b&gt;&lt;/span&gt;" style="rounded=1;html=1;fillColor=#CCE5FF;strokeColor=#3399FF;fontSize=14;fontStyle=2;shadow=1;textShadow=1;labelPosition=center;verticalLabelPosition=middle;align=center;verticalAlign=top;whiteSpace=wrap;container=1;" vertex="1" parent="qkBd6DQFq6oWj8cSMgXT-31">
          <mxGeometry x="-60" width="320" height="220" as="geometry" />
        </mxCell>
        <mxCell id="qkBd6DQFq6oWj8cSMgXT-43" value="mDeBERTa-v3" style="rounded=1;html=1;glass=0;shadow=1;textShadow=1;whiteSpace=wrap;fontSize=14;" vertex="1" parent="qkBd6DQFq6oWj8cSMgXT-31">
          <mxGeometry x="-40" y="50" width="120" height="40" as="geometry" />
        </mxCell>
        <mxCell id="qkBd6DQFq6oWj8cSMgXT-45" value="twitter-xlm-roberta..." style="rounded=1;html=1;glass=0;shadow=1;textShadow=1;whiteSpace=wrap;fontSize=14;" vertex="1" parent="qkBd6DQFq6oWj8cSMgXT-31">
          <mxGeometry x="120" y="50" width="120" height="40" as="geometry" />
        </mxCell>
        <mxCell id="qkBd6DQFq6oWj8cSMgXT-46" value="Classifier" style="rounded=1;html=1;glass=0;shadow=1;textShadow=1;whiteSpace=wrap;fontSize=14;" vertex="1" parent="qkBd6DQFq6oWj8cSMgXT-31">
          <mxGeometry x="40" y="160" width="120" height="40" as="geometry" />
        </mxCell>
        <mxCell id="qkBd6DQFq6oWj8cSMgXT-48" value="&lt;font&gt;+&lt;/font&gt;" style="ellipse;html=1;aspect=fixed;shadow=1;textShadow=1;whiteSpace=wrap;fontSize=14;" vertex="1" parent="qkBd6DQFq6oWj8cSMgXT-31">
          <mxGeometry x="80" y="90" width="40" height="40" as="geometry" />
        </mxCell>
        <mxCell id="qkBd6DQFq6oWj8cSMgXT-58" style="edgeStyle=orthogonalEdgeStyle;rounded=1;orthogonalLoop=1;jettySize=auto;html=1;strokeWidth=4;exitX=0.5;exitY=1;exitDx=0;exitDy=0;entryX=0;entryY=0.5;entryDx=0;entryDy=0;shadow=1;textShadow=1;flowAnimation=0;curved=0;fontSize=14;" edge="1" parent="qkBd6DQFq6oWj8cSMgXT-31" source="qkBd6DQFq6oWj8cSMgXT-43" target="qkBd6DQFq6oWj8cSMgXT-48">
          <mxGeometry relative="1" as="geometry">
            <mxPoint x="-455" y="94" as="sourcePoint" />
            <mxPoint x="-455" y="142" as="targetPoint" />
            <Array as="points" />
          </mxGeometry>
        </mxCell>
        <mxCell id="qkBd6DQFq6oWj8cSMgXT-59" style="edgeStyle=orthogonalEdgeStyle;rounded=1;orthogonalLoop=1;jettySize=auto;html=1;strokeWidth=4;exitX=0.5;exitY=1;exitDx=0;exitDy=0;entryX=1;entryY=0.5;entryDx=0;entryDy=0;shadow=1;textShadow=1;flowAnimation=0;curved=0;fontSize=14;" edge="1" parent="qkBd6DQFq6oWj8cSMgXT-31" source="qkBd6DQFq6oWj8cSMgXT-45" target="qkBd6DQFq6oWj8cSMgXT-48">
          <mxGeometry relative="1" as="geometry">
            <mxPoint x="54" y="100" as="sourcePoint" />
            <mxPoint x="99" y="130" as="targetPoint" />
            <Array as="points" />
          </mxGeometry>
        </mxCell>
        <mxCell id="qkBd6DQFq6oWj8cSMgXT-60" style="edgeStyle=orthogonalEdgeStyle;rounded=0;orthogonalLoop=1;jettySize=auto;html=1;strokeWidth=4;exitX=0.5;exitY=1;exitDx=0;exitDy=0;entryX=0.5;entryY=0;entryDx=0;entryDy=0;shadow=1;textShadow=1;flowAnimation=0;fontSize=14;" edge="1" parent="qkBd6DQFq6oWj8cSMgXT-31" source="qkBd6DQFq6oWj8cSMgXT-48" target="qkBd6DQFq6oWj8cSMgXT-46">
          <mxGeometry relative="1" as="geometry">
            <mxPoint x="64" y="110" as="sourcePoint" />
            <mxPoint x="109" y="140" as="targetPoint" />
            <Array as="points" />
          </mxGeometry>
        </mxCell>
        <mxCell id="qkBd6DQFq6oWj8cSMgXT-76" style="edgeStyle=orthogonalEdgeStyle;rounded=0;orthogonalLoop=1;jettySize=auto;html=1;exitX=0.5;exitY=1;exitDx=0;exitDy=0;entryX=0.515;entryY=-0.035;entryDx=0;entryDy=0;shadow=1;curved=0;textShadow=1;fontSize=14;entryPerimeter=0;" edge="1" parent="1" source="3-KLOooi5ENP4IrTd0Cn-23" target="3-KLOooi5ENP4IrTd0Cn-20">
          <mxGeometry relative="1" as="geometry">
            <mxPoint x="250" y="750" as="sourcePoint" />
            <mxPoint x="210" y="750" as="targetPoint" />
          </mxGeometry>
        </mxCell>
      </root>
    </mxGraphModel>
  </diagram>
  <diagram id="dYiv4uwNdGwVVvwZYyta" name="Page-2">
    <mxGraphModel dx="1434" dy="786" grid="1" gridSize="10" guides="1" tooltips="1" connect="1" arrows="1" fold="1" page="1" pageScale="1" pageWidth="827" pageHeight="1169" math="0" shadow="0">
      <root>
        <mxCell id="0" />
        <mxCell id="1" parent="0" />
      </root>
    </mxGraphModel>
  </diagram>
</mxfile>
